<svg xmlns="http://www.w3.org/2000/svg" xmlns:xlink="http://www.w3.org/1999/xlink" fill="none" version="1.1" width="32.47478485107422" height="32.47569274902344" viewBox="0 0 32.47478485107422 32.47569274902344"><defs><clipPath id="master_svg0_315_000109/286_167758/286_167461"><rect x="0" y="32.47569274902344" width="32.47478485107422" height="32.47569274902344" rx="0"/></clipPath></defs><g transform="matrix(1,0,0,-1,0,64.95138549804688)" clip-path="url(#master_svg0_315_000109/286_167758/286_167461)"><g><path d="M32.4713,64.95140769042969C32.4713,64.95140769042969,0,53.36100769042969,0,53.36100769042969C0,53.36100769042969,32.4748,58.97165769042969,32.4748,58.97165769042969C32.4748,58.97165769042969,32.4748,64.95140769042969,32.4748,64.95140769042969C32.4748,64.95140769042969,32.4713,64.95140769042969,32.4713,64.95140769042969Z" fill="#FFE600" fill-opacity="1"/></g><g><path d="M16.890323046875,32.47569274902344C16.890323046875,32.47569274902344,21.802123046875,32.47569274902344,21.802123046875,32.47569274902344C21.802123046875,32.47569274902344,21.802123046875,38.821492749023434,21.802123046875,38.821492749023434C21.802123046875,38.821492749023434,27.549323046875,48.540692749023435,27.549323046875,48.540692749023435C27.549323046875,48.540692749023435,22.172223046875,48.540692749023435,22.172223046875,48.540692749023435C22.172223046875,48.540692749023435,19.381313046875,43.297992749023436,19.381313046875,43.297992749023436C19.381313046875,43.297992749023436,16.598073046875,48.540692749023435,16.598073046875,48.540692749023435C16.598073046875,48.540692749023435,11.151123046875,48.540692749023435,11.151123046875,48.540692749023435C11.151123046875,48.540692749023435,16.890323046875,38.821492749023434,16.890323046875,38.821492749023434C16.890323046875,38.821492749023434,16.890323046875,32.47569274902344,16.890323046875,32.47569274902344Z" fill="#EAEAF2" fill-opacity="1"/></g><g><path d="M13.424203125,36.17063274902344C13.424203125,36.17063274902344,5.209733125,36.17063274902344,5.209733125,36.17063274902344C5.209733125,36.17063274902344,5.209733125,38.82143274902344,5.209733125,38.82143274902344C5.209733125,38.82143274902344,11.149703125,38.82143274902344,11.149703125,38.82143274902344C11.149703125,38.82143274902344,11.149703125,42.19446274902344,11.149703125,42.19446274902344C11.149703125,42.19446274902344,5.209733125,42.19446274902344,5.209733125,42.19446274902344C5.209733125,42.19446274902344,5.209733125,44.845892749023434,5.209733125,44.845892749023434C5.209733125,44.845892749023434,11.780903125,44.845892749023434,11.780903125,44.845892749023434C11.780903125,44.845892749023434,9.600543125,48.540692749023435,9.600543125,48.540692749023435C9.600543125,48.540692749023435,0.283203125,48.540692749023435,0.283203125,48.540692749023435C0.283203125,48.540692749023435,0.283203125,32.47569274902344,0.283203125,32.47569274902344C0.283203125,32.47569274902344,13.424203125,32.47569274902344,13.424203125,32.47569274902344C13.424203125,32.47569274902344,13.424203125,36.17063274902344,13.424203125,36.17063274902344Z" fill="#EAEAF2" fill-opacity="1"/></g></g></svg>